M48
; DRILL file {KiCad (7.0.0)} date Fri Jun 23 12:05:47 2023
; FORMAT={3:3/ absolute / metric / keep zeros}
; #@! TF.CreationDate,2023-06-23T12:05:47+01:00
; #@! TF.GenerationSoftware,Kicad,Pcbnew,(7.0.0)
; #@! TF.FileFunction,MixedPlating,1,2
FMAT,2
METRIC
; #@! TA.AperFunction,Plated,PTH,ViaDrill
T1C0.700
; #@! TA.AperFunction,Plated,PTH,ComponentDrill
T2C1.000
; #@! TA.AperFunction,Plated,PTH,ComponentDrill
T3C1.016
; #@! TA.AperFunction,Plated,PTH,ComponentDrill
T4C1.100
; #@! TA.AperFunction,Plated,PTH,ComponentDrill
T5C1.320
; #@! TA.AperFunction,NonPlated,NPTH,ComponentDrill
T6C3.100
; #@! TA.AperFunction,NonPlated,NPTH,ComponentDrill
T7C3.200
; #@! TA.AperFunction,NonPlated,NPTH,ComponentDrill
T8C3.500
%
G90
G05
T1
X011845Y009950
X014385Y032810
X022005Y026451
X022005Y015665
X022025Y066340
X028375Y013170
X034070Y061385
X043595Y055670
X044865Y061385
X045500Y065195
X051850Y056305
X099212Y009774
X101752Y032634
X109372Y026274
X109372Y015489
X109392Y066164
X115742Y012994
X121437Y061209
X130962Y055494
X132232Y061209
X132867Y065019
X139217Y056129
T2
X027085Y042965
X027085Y040425
X027735Y060745
X027735Y058205
X027735Y055665
X030275Y060745
X030275Y058205
X030275Y055665
X035798Y050101
X035798Y047561
X038338Y050101
X038338Y047561
X040878Y050101
X040878Y047561
X042960Y031540
X042960Y029000
X046135Y031540
X046135Y029000
X049310Y031540
X049310Y029000
X052485Y031540
X052485Y029000
X055660Y031540
X055660Y029000
X114452Y042789
X114452Y040249
X115102Y060569
X115102Y058029
X115102Y055489
X117642Y060569
X117642Y058029
X117642Y055489
X123165Y049925
X123165Y047385
X125705Y049925
X125705Y047385
X128245Y049925
X128245Y047385
X130327Y031364
X130327Y028824
X133502Y031364
X133502Y028824
X136677Y031364
X136677Y028824
X139852Y031364
X139852Y028824
X143027Y031364
X143027Y028824
T3
X010624Y064172
X010624Y061632
X010624Y059092
X010624Y056552
X010624Y054012
X010624Y051472
X010624Y048932
X010624Y046392
X010624Y042328
X010624Y039788
X010624Y037247
X010624Y034707
X010624Y032167
X010624Y029628
X010624Y027088
X010624Y024548
X010624Y022008
X010624Y019467
X058884Y064172
X058884Y061632
X058884Y059092
X058884Y056552
X058884Y054012
X058884Y051472
X058884Y046392
X058884Y043852
X058884Y041312
X058884Y038772
X058884Y036232
X058884Y033692
X058884Y031151
X058884Y028612
X097991Y063995
X097991Y061455
X097991Y058915
X097991Y056375
X097991Y053835
X097991Y051295
X097991Y048755
X097991Y046215
X097991Y042151
X097991Y039611
X097991Y037071
X097991Y034531
X097991Y031991
X097991Y029451
X097991Y026911
X097991Y024371
X097991Y021831
X097991Y019291
X146251Y063995
X146251Y061455
X146251Y058915
X146251Y056375
X146251Y053835
X146251Y051295
X146251Y046215
X146251Y043675
X146251Y041135
X146251Y038595
X146251Y036055
X146251Y033515
X146251Y030975
X146251Y028435
T4
X037245Y023285
X037245Y020745
X037245Y018205
X124612Y023109
X124612Y020569
X124612Y018029
T5
X015100Y042970
X015655Y057575
X020100Y042970
X020655Y057575
X032800Y007410
X037800Y007410
X102467Y042794
X103022Y057399
X107467Y042794
X108022Y057399
X120167Y007234
X125167Y007234
T6
X005000Y095000
X005000Y005000
X155000Y095000
X155000Y005000
T7
X010624Y015911
X025864Y066712
X053804Y066712
X058884Y014641
X097991Y015735
X113231Y066535
X141171Y066535
X146251Y014465
T8
X053905Y020745
X141272Y020569
T0
M30
